<svg xmlns="http://www.w3.org/2000/svg" viewBox="22.8 -2.9 29.3 29.3">
  <!-- LIMRA "M" mark, un-enclosed. Dark navy on light browsers,
       white on dark browsers via prefers-color-scheme. -->
  <style>
    .mark { fill: #1A1940; }
    @media (prefers-color-scheme: dark) {
      .mark { fill: #FFFFFF; }
    }
  </style>
  <g class="mark">
    <path d="M35.55,20.02c-2.06-1.57-5.5-2.98-11.21-2.98v-3.14c7.16,0,10.06,3.58,11.21,6.12Z"/>
    <path d="M50.52.06v11.54c-8.01,0-11.55,4.03-13.09,7.12-1.53-3.09-5.07-7.12-13.09-7.12V.06c8.01,0,11.55,4.03,13.09,7.12C38.97,4.08,42.51.06,50.52.06Z"/>
    <path d="M50.52,13.89v3.14c-5.73,0-9.17,1.42-11.23,3,1.13-2.54,4.01-6.14,11.23-6.14Z"/>
    <path d="M32.9,21.04c-4.4.08-8.56,2.34-8.56,2.34v-4.05c4.07,0,6.77.76,8.56,1.71Z"/>
    <path d="M50.52,19.34v4.05s-4.15-2.26-8.55-2.34c1.78-.95,4.49-1.71,8.55-1.71Z"/>
  </g>
</svg>
