<svg xmlns="http://www.w3.org/2000/svg" id="Layer_2" viewBox="0 0 93 32.93">
  <defs>
    
  </defs>
  <g id="Layer_1-2">
    <g>
      <g>
        <path d="M8.37,32.93c-.58,0-1.08-.13-1.52-.39-.44-.26-.78-.62-1.02-1.09s-.36-1.01-.36-1.62.12-1.15.36-1.61.58-.83,1.02-1.09c.44-.26.94-.39,1.52-.39s1.1.13,1.54.39.77.63,1.01,1.09.36,1,.36,1.61-.12,1.16-.36,1.62-.58.83-1.01,1.09c-.44.26-.95.39-1.54.39ZM8.37,32.3c.43,0,.81-.1,1.14-.3s.58-.48.76-.85c.18-.37.27-.81.27-1.32s-.09-.95-.27-1.32c-.18-.37-.43-.65-.76-.84s-.71-.29-1.14-.29-.81.1-1.13.29c-.33.19-.58.47-.76.84-.18.37-.27.81-.27,1.32s.09.95.27,1.32c.18.37.43.65.76.85.33.2.71.3,1.13.3Z" fill="rgb(255, 255, 255)"/>
        <path d="M13.75,32.83l-1.63-4.31h.75l1.3,3.62,1.31-3.62h.74l-1.63,4.31h-.83Z" fill="rgb(255, 255, 255)"/>
        <path d="M18.9,32.93c-.4,0-.76-.09-1.07-.28-.31-.19-.56-.45-.74-.79-.18-.34-.27-.73-.27-1.18s.09-.85.26-1.19c.17-.34.42-.6.74-.79.32-.19.68-.28,1.09-.28s.78.09,1.08.28c.3.19.52.44.68.74s.24.64.24,1.01v.18c0,.06,0,.13,0,.21h-3.53v-.56h2.83c-.02-.39-.15-.7-.39-.92-.24-.22-.55-.33-.91-.33-.24,0-.46.06-.68.17s-.38.27-.5.49c-.12.21-.19.48-.19.8v.24c0,.35.06.65.19.89.13.24.3.42.5.54.21.12.43.18.67.18.3,0,.55-.07.75-.2.2-.13.34-.32.43-.55h.71c-.07.26-.2.5-.37.7-.17.2-.38.36-.64.48-.25.12-.55.18-.89.18Z" fill="rgb(255, 255, 255)"/>
        <path d="M22.09,32.83v-4.31h.65l.05.82c.1-.19.22-.36.37-.5.15-.14.33-.24.55-.32s.46-.11.73-.11v.75h-.26c-.18,0-.36.02-.52.07-.17.05-.31.13-.44.24-.13.11-.23.26-.3.44-.07.19-.11.42-.11.69v2.22h-.72Z" fill="rgb(255, 255, 255)"/>
        <path d="M27.09,32.93c-.35,0-.67-.06-.93-.18-.27-.12-.48-.29-.64-.5s-.25-.47-.29-.76h.74c.03.15.09.29.18.41s.21.23.37.3c.16.08.35.12.58.12.2,0,.36-.03.5-.09.13-.06.23-.14.29-.24s.1-.21.1-.33c0-.18-.04-.31-.12-.4-.08-.09-.2-.16-.36-.22-.16-.05-.35-.1-.58-.14-.19-.03-.37-.08-.56-.14s-.34-.13-.49-.23c-.14-.09-.26-.21-.34-.35-.08-.14-.12-.31-.12-.5,0-.25.06-.46.19-.65.13-.19.31-.34.54-.45s.51-.16.82-.16c.46,0,.84.11,1.12.33.29.22.45.54.5.97h-.71c-.03-.22-.12-.39-.28-.51-.16-.12-.37-.18-.65-.18s-.47.05-.61.16-.21.25-.21.43c0,.11.04.22.12.3.08.09.19.16.35.23.15.06.34.11.56.15.29.05.54.12.78.21.23.09.42.21.57.38.15.17.22.41.22.71,0,.27-.07.5-.2.7s-.32.35-.57.47c-.25.11-.53.17-.86.17Z" fill="rgb(255, 255, 255)"/>
        <path d="M31.87,32.93c-.4,0-.76-.09-1.07-.28-.31-.19-.56-.45-.74-.79-.18-.34-.27-.73-.27-1.18s.09-.85.26-1.19c.17-.34.42-.6.74-.79.32-.19.68-.28,1.09-.28s.78.09,1.08.28c.3.19.52.44.68.74s.24.64.24,1.01v.18c0,.06,0,.13,0,.21h-3.53v-.56h2.83c-.02-.39-.15-.7-.39-.92-.24-.22-.55-.33-.91-.33-.24,0-.46.06-.68.17s-.38.27-.5.49c-.12.21-.19.48-.19.8v.24c0,.35.06.65.19.89.13.24.3.42.5.54.21.12.43.18.67.18.3,0,.55-.07.75-.2.2-.13.34-.32.43-.55h.71c-.07.26-.2.5-.37.7-.17.2-.38.36-.64.48-.25.12-.55.18-.89.18Z" fill="rgb(255, 255, 255)"/>
        <path d="M36.45,32.93c-.35,0-.64-.06-.87-.18-.23-.12-.41-.29-.52-.49s-.17-.42-.17-.66c0-.29.08-.54.23-.74.15-.2.37-.36.64-.46.28-.11.6-.16.98-.16h1.14c0-.27-.04-.49-.12-.67s-.2-.32-.36-.41c-.16-.09-.35-.14-.59-.14-.27,0-.51.07-.71.21-.2.14-.32.34-.37.61h-.74c.03-.31.14-.57.31-.77.17-.21.39-.37.66-.48.27-.11.55-.17.84-.17.4,0,.73.07,1,.22.26.15.46.35.59.61.13.26.2.57.2.92v2.67h-.64l-.04-.76c-.06.12-.13.23-.22.34-.09.11-.19.2-.31.27-.12.08-.25.14-.41.18-.15.05-.33.07-.52.07ZM36.56,32.32c.2,0,.38-.04.54-.12.16-.08.3-.2.42-.34s.2-.31.26-.48c.06-.18.09-.36.09-.56v-.03h-1.08c-.28,0-.5.03-.68.1-.17.07-.29.16-.37.27-.07.12-.11.25-.11.4s.04.29.11.4c.07.11.18.2.32.27.14.06.31.09.5.09Z" fill="rgb(255, 255, 255)"/>
        <path d="M41.54,32.93c-.35,0-.67-.06-.93-.18-.27-.12-.48-.29-.64-.5s-.25-.47-.29-.76h.74c.03.15.09.29.18.41s.21.23.37.3c.16.08.35.12.58.12.2,0,.36-.03.5-.09.13-.06.23-.14.29-.24s.1-.21.1-.33c0-.18-.04-.31-.12-.4-.08-.09-.2-.16-.36-.22-.16-.05-.35-.1-.58-.14-.19-.03-.37-.08-.56-.14s-.34-.13-.49-.23c-.14-.09-.26-.21-.34-.35-.08-.14-.12-.31-.12-.5,0-.25.06-.46.19-.65.13-.19.31-.34.54-.45s.51-.16.82-.16c.46,0,.84.11,1.12.33.29.22.45.54.5.97h-.71c-.03-.22-.12-.39-.28-.51-.16-.12-.37-.18-.65-.18s-.47.05-.61.16-.21.25-.21.43c0,.11.04.22.12.3.08.09.19.16.35.23.15.06.34.11.56.15.29.05.54.12.78.21.23.09.42.21.57.38.15.17.22.41.22.71,0,.27-.07.5-.2.7s-.32.35-.57.47c-.25.11-.53.17-.86.17Z" fill="rgb(255, 255, 255)"/>
        <path d="M46.96,32.83v-5.99h3.7v.59h-2.99v2.09h2.73v.58h-2.73v2.14h2.99v.59h-3.7Z" fill="rgb(255, 255, 255)"/>
        <path d="M53.87,32.93c-.42,0-.78-.1-1.1-.29s-.56-.47-.73-.81-.26-.73-.26-1.16.09-.82.26-1.16.42-.61.73-.8.69-.29,1.11-.29c.35,0,.65.07.92.21.27.14.47.34.62.6v-2.56h.72v6.16h-.65l-.07-.71c-.09.14-.21.27-.35.4-.14.12-.31.22-.51.3-.2.08-.43.12-.69.12ZM53.95,32.3c.29,0,.54-.07.75-.21.22-.14.39-.33.51-.57.12-.24.18-.53.18-.86s-.06-.61-.18-.86c-.12-.25-.29-.44-.51-.57-.22-.14-.47-.21-.75-.21s-.52.07-.74.21c-.22.14-.39.33-.51.57-.12.25-.18.53-.18.86s.06.62.18.86c.12.24.29.43.51.57.22.14.47.21.74.21Z" fill="rgb(255, 255, 255)"/>
        <path d="M59.11,32.93c-.33,0-.62-.07-.87-.2-.25-.13-.44-.33-.57-.61-.13-.27-.2-.62-.2-1.03v-2.58h.72v2.51c0,.43.09.75.28.97.19.22.45.33.8.33.24,0,.46-.06.65-.18.19-.12.35-.29.46-.5.11-.22.17-.49.17-.82v-2.3h.72v4.31h-.65l-.04-.75c-.13.27-.33.48-.58.63s-.55.23-.87.23Z" fill="rgb(255, 255, 255)"/>
        <path d="M64.6,32.93c-.41,0-.77-.09-1.09-.28-.32-.19-.58-.45-.76-.79-.18-.34-.27-.73-.27-1.18s.09-.85.27-1.19c.18-.34.43-.6.76-.79.32-.19.69-.29,1.09-.29.51,0,.94.13,1.28.4s.56.62.65,1.06h-.74c-.06-.27-.2-.48-.42-.62-.22-.15-.48-.22-.79-.22-.25,0-.47.06-.68.18-.21.12-.38.31-.5.55-.13.25-.19.55-.19.91,0,.27.04.51.11.71.07.21.17.38.3.52.13.14.27.24.44.31.17.07.34.11.53.11.21,0,.39-.03.56-.1.17-.07.3-.16.42-.3.11-.13.19-.29.23-.46h.74c-.09.43-.31.79-.65,1.06-.35.27-.77.41-1.28.41Z" fill="rgb(255, 255, 255)"/>
        <path d="M69.17,32.93c-.35,0-.64-.06-.87-.18-.23-.12-.41-.29-.52-.49s-.17-.42-.17-.66c0-.29.08-.54.23-.74.15-.2.37-.36.64-.46.28-.11.6-.16.98-.16h1.14c0-.27-.04-.49-.12-.67s-.2-.32-.36-.41c-.16-.09-.35-.14-.59-.14-.27,0-.51.07-.71.21-.2.14-.32.34-.37.61h-.74c.03-.31.14-.57.31-.77.17-.21.39-.37.66-.48.27-.11.55-.17.84-.17.4,0,.73.07,1,.22.26.15.46.35.59.61.13.26.2.57.2.92v2.67h-.64l-.04-.76c-.06.12-.13.23-.22.34-.09.11-.19.2-.31.27-.12.08-.25.14-.41.18-.15.05-.33.07-.52.07ZM69.28,32.32c.2,0,.38-.04.54-.12.16-.08.3-.2.42-.34s.2-.31.26-.48c.06-.18.09-.36.09-.56v-.03h-1.08c-.28,0-.5.03-.68.1-.17.07-.29.16-.37.27-.07.12-.11.25-.11.4s.04.29.11.4c.07.11.18.2.32.27.14.06.31.09.5.09Z" fill="rgb(255, 255, 255)"/>
        <path d="M74.21,32.83c-.26,0-.48-.04-.67-.12-.19-.08-.33-.22-.43-.41-.1-.19-.15-.45-.15-.77v-2.4h-.75v-.61h.75l.09-1.04h.62v1.04h1.25v.61h-1.25v2.4c0,.27.05.45.16.54.11.09.3.14.57.14h.46v.62h-.67Z" fill="rgb(255, 255, 255)"/>
        <path d="M76.51,27.6c-.14,0-.26-.05-.35-.14-.09-.09-.14-.21-.14-.36s.05-.26.14-.35c.09-.09.21-.13.35-.13s.25.04.35.13c.1.09.15.2.15.35s-.05.26-.15.36c-.1.09-.21.14-.35.14ZM76.15,32.83v-4.31h.72v4.31h-.72Z" fill="rgb(255, 255, 255)"/>
        <path d="M80.27,32.93c-.4,0-.76-.09-1.08-.28-.32-.19-.57-.45-.75-.79-.18-.34-.27-.73-.27-1.19s.09-.86.28-1.2c.19-.34.44-.6.76-.79.32-.19.68-.28,1.08-.28s.77.09,1.09.28c.32.19.57.45.75.79.19.34.28.74.28,1.19s-.09.85-.28,1.19c-.19.34-.44.6-.76.79-.32.19-.68.28-1.1.28ZM80.28,32.31c.25,0,.47-.06.68-.18s.38-.31.51-.55c.13-.25.2-.55.2-.91s-.06-.67-.19-.91c-.13-.24-.3-.42-.5-.55-.21-.12-.44-.18-.69-.18s-.47.06-.68.18c-.21.12-.38.31-.51.55-.13.24-.19.55-.19.91s.06.66.19.91c.13.25.3.43.5.55.21.12.43.18.68.18Z" fill="rgb(255, 255, 255)"/>
        <path d="M83.63,32.83v-4.31h.65l.03.75c.14-.27.33-.48.59-.63.25-.15.54-.23.87-.23s.63.07.87.2.44.34.57.61.21.61.21,1.03v2.58h-.72v-2.5c0-.43-.1-.76-.29-.98-.19-.22-.46-.32-.81-.32-.24,0-.45.06-.64.18s-.34.29-.45.5c-.11.22-.17.49-.17.82v2.3h-.72Z" fill="rgb(255, 255, 255)"/>
      </g>
      <g>
        <g>
          <path d="M35.55,20.02c-2.06-1.57-5.5-2.98-11.21-2.98v-3.14c7.16,0,10.06,3.58,11.21,6.12Z" fill="rgb(255, 255, 255)"/>
          <path d="M50.52.06v11.54c-8.01,0-11.55,4.03-13.09,7.12-1.53-3.09-5.07-7.12-13.09-7.12V.06c8.01,0,11.55,4.03,13.09,7.12C38.97,4.08,42.51.06,50.52.06Z" fill="rgb(255, 255, 255)"/>
          <path d="M50.52,13.89v3.14c-5.73,0-9.17,1.42-11.23,3,1.13-2.54,4.01-6.14,11.23-6.14Z" fill="rgb(255, 255, 255)"/>
          <path d="M32.9,21.04c-4.4.08-8.56,2.34-8.56,2.34v-4.05c4.07,0,6.77.76,8.56,1.71Z" fill="rgb(255, 255, 255)"/>
          <path d="M50.52,19.34v4.05s-4.15-2.26-8.55-2.34c1.78-.95,4.49-1.71,8.55-1.71Z" fill="rgb(255, 255, 255)"/>
          <path d="M16.53,23.38V0h4.68v23.38h-4.68Z" fill="rgb(255, 255, 255)"/>
          <polygon points="4.68 18.71 4.68 0 0 0 0 23.38 2.97 23.38 11.84 23.38 13.93 23.38 13.93 18.71 4.68 18.71" fill="rgb(255, 255, 255)"/>
          <path d="M62.86,14.55c3.23-.93,5.53-3.23,5.53-7.07v-.07c0-2.03-.7-3.73-1.93-5.03-1.5-1.47-3.8-2.33-6.74-2.33h-6.07v3.73h5.74c3.07,0,4.83,1.33,4.83,3.87v.07c0,2.4-1.86,3.9-4.8,3.9h-3.44l2.57,3.63h0l2.52,3.58.54.77,2.68,3.79h4.87l-6.3-8.84Z" fill="rgb(255, 255, 255)"/>
          <path d="M70.68,23.38L79.19.03h5.31l8.51,23.36h-4.94l-6.24-18.05-6.27,18.05h-4.87Z" fill="rgb(255, 255, 255)"/>
        </g>
        <polygon points="84.65 23.38 79.03 23.38 81.85 15.27 84.65 23.38" fill="rgb(238, 64, 56)"/>
      </g>
    </g>
  </g>
</svg>